# xmcd CD database file
#
# Track frame offsets:
#	150
#	15108
#	29518
#	45241
#
# Disc length: 853 seconds
#
# Revision: 0
# Processed by: cddbd v1.5.1PL0 Copyright (c) Steve Scherf et al.
# Submitted via: CDex 1.51
#
DISCID=1d035304
DTITLE=Nicki Gillis - On The Mountain
DYEAR=2004
DGENRE=Country
TTITLE0=On The Mountain
TTITLE1=Lonely
TTITLE2=Jealousy
TTITLE3=At Seventeen
EXTD=YEAR: 2004
EXTT0=
EXTT1=
EXTT2=
EXTT3=
PLAYORDER=
